<svg id="圖層_1" data-name="圖層 1" xmlns="http://www.w3.org/2000/svg" viewBox="0 0 516.2 131.36"><defs><style>.cls-1{fill:#fff;}.cls-2{fill:#3c3c78;}</style></defs><path class="cls-1" d="M7.74,52.13c12.43,19.74-5,42.7-4.3,56.75.55,11.44,8.66,20.43,28.7,20,10.48-.2,17.24-2,21.29-3.64a15.64,15.64,0,0,1,11.36-.36c9.81,3.54,28.85,8.4,39.48-2.27,3-3,8.54-4.12,12.14-2,5.09,3,13,5.26,23.84,1.58a19,19,0,0,1,15,1.22c5.95,3.13,15.11,5.94,25.13,1.7a20.47,20.47,0,0,1,18.38,1.09c5.43,3.13,13.1,4.84,22-1,5.3-3.46,11.83-5.05,17.89-3.24,4.93,1.48,11.06,2.13,16.64-.68,5.75-2.9,12.19-3.72,18.13-1.27,8.56,3.53,21,6.33,32.29,0a4.63,4.63,0,0,1,4.46-.15,27.82,27.82,0,0,0,26.44,0c5.44-2.91,12-2.42,17.45.41,8.51,4.37,22.81,7.86,42.16-.94,5.82-2.64,16.1-2.11,21.32,1.59,6.13,4.35,15.3,9.13,26.73-2.59a5.11,5.11,0,0,1,6.87-.47c3.44,2.88,9.48,5.76,17.67,1.26,4.06-2.23,8.84-2.79,12.88-.51,7.94,4.47,23.56,4.5,32.19-11.36,6.64-12.19-4.4-31.48-1.25-49.69,3.29-19-16.94-26.92-27-29.33-14.44-3.46-20.45,0-23.85,2.57-1.39,1.06-4.49,1.66-7.78,0-7.74-3.91-29.6-10.12-44.16,6a4.54,4.54,0,0,1-6.49.61c-7.39-6.52-21.91-16.8-42.89-10-14,4.55-18.71,16.93-17.44,10.12,4-21.34-24.08-35-43.28-26.85a25.9,25.9,0,0,0-9.85,7.09s-7.7,8.91-5.65,17.17c1,3.86,1.22,7.11-3.48,6.79-13.13-.89-16.74,12-17.13,2.75-.72-16.89-18.31-26.35-33.46-19.2a11.61,11.61,0,0,1-6.91,1.26c-6.8-1.15-22-2.58-30.61,5.27-3.35,3.06-8.06,3.45-12.25,1.7-3.46-1.45-8-1.82-13.2,1.36-3.32,2-7.25,2.72-10.79,1.12-6.07-2.75-17-4.93-31.09,3.94a4.59,4.59,0,0,1-7.08-3.17c-1.13-8.94-13.79-46.82-56.76-30.74-14.08,5.27-19.1-13.62-48.23,4.64C-8.13,24.2,1.69,42.53,7.74,52.13Z"/><path class="cls-2" d="M105.77,41.47a70.87,70.87,0,0,0-3.21-9.73A26.67,26.67,0,0,0,84.43,16.48a28.08,28.08,0,0,0-8.3-1.21,36.06,36.06,0,0,0-22.78,7.41l.34.11c.66.66,1.43,1.32,2.1,2.1l2.76,3.76a1.09,1.09,0,0,1-.22,1.55,1.26,1.26,0,0,1-1.66-.34l-.33-.66a19.9,19.9,0,0,0-1.77-2.1A26.48,26.48,0,0,0,52,24.56l-.23-.34a3.51,3.51,0,0,1-.77-.66c-.33-.33-.77-.66-1.11-1a14.08,14.08,0,0,0-1.32-1.22A17.16,17.16,0,0,1,47.16,20a11.14,11.14,0,0,0-4.87-2A22.48,22.48,0,0,0,31,18.47,29.69,29.69,0,0,0,23.27,22c-7.29,4.87-9.06,11.5-5.08,20l2.43,4.09L22.06,48a21.7,21.7,0,0,1,3,5.64,65,65,0,0,1,2.66,8.18,30.57,30.57,0,0,1,.22,10.62,35.9,35.9,0,0,1-4,12q-8.3,15.93-2.66,25.88c2,3.32,4.32,5.2,7.19,5.64H33c7.63,0,12.27-.22,13.93-.44,4.42-.89,8.29-4,11.61-9.18,4.76-6.75,5.31-16.7,1.77-30.08-.11-.77.11-1.22.77-1.44h.23a1.32,1.32,0,0,1,1.1.78c.44,3.2.78,5.53,1.11,7.18,1.32,11.51.33,20-3.21,25.33A12.12,12.12,0,0,1,62,109c10.17,4.87,20,5.42,29.75,1.44.77-.33,1.65-.66,2.54-1.11,6.41-3.2,9.62-7.29,9.84-12.38.22-6.19-4.42-11.61-13.93-16.37A71.21,71.21,0,0,0,81.77,78c-1.43-.44-2.54-.67-3.31-.89a1.24,1.24,0,0,1-.78-1.32,1.16,1.16,0,0,1,1.11-.89H79l.11.11c1.33.33,3.21.89,5.64,1.55,1.33.55,2.43.89,3.1,1.11,9.73-6.2,15.92-13.27,18.35-21.24l.67-4V49.33A33.49,33.49,0,0,0,105.77,41.47ZM81.22,53.75c-3.32,7.08-9.84,11-14.71,8.74s-6-9.74-2.65-16.81,9.84-11,14.6-8.74S84.54,46.67,81.22,53.75Zm4.53-30a3.39,3.39,0,0,0-1.32-.55,2.29,2.29,0,0,0-.56-.33,1.14,1.14,0,0,1-.33-1.44,1.16,1.16,0,0,1,.89-.66,11.29,11.29,0,0,1,2.43,1,1.43,1.43,0,0,1,.55,1.55A1.34,1.34,0,0,1,85.75,23.78ZM97.59,43.36a1.26,1.26,0,0,1-1.33.77c-.66-.11-.88-.55-.88-1.33a17.24,17.24,0,0,0-1.11-11.39A14.51,14.51,0,0,0,89.07,26a1.48,1.48,0,0,1-.55-1.55c.22-.33.55-.44,1.11-.55a1,1,0,0,1,.55.11,17.21,17.21,0,0,1,6.08,6.2C98.25,34.07,98.69,38.38,97.59,43.36Z"/><path class="cls-2" d="M181.08,88.81a10.56,10.56,0,0,1-4.53-5c-2.11-4.65-1.66-9.62,1.32-14.82a19.74,19.74,0,0,0,2.77-10.73c-.44-6.08-3.87-9.73-10.18-11.05A9.13,9.13,0,0,0,167.7,47a5,5,0,0,0-1.77.23c-4.53,1.1-8.18,5.3-11.17,12.49a1.21,1.21,0,0,1-1.44.67,1.28,1.28,0,0,1-.66-1.44,37.78,37.78,0,0,1,4.53-7.85,26.92,26.92,0,0,0-3.09-1.33c-10.62-4.2-19.47-3.54-26.54,1.88a37.12,37.12,0,0,0-12.5,18c-3.54,10.62-3.21,20.57,1.11,30a16.56,16.56,0,0,0,9.29,9.07c5.75,2.1,11.94,1.22,18.46-2.54,6.08-3.54,9.84-8.19,11.17-13.83.11-.66.55-.88,1.33-.88.55.11.88.55.88,1.33a24,24,0,0,1-6.63,11.28,18.94,18.94,0,0,0,9.29,5.64,22.29,22.29,0,0,0,16.7-1.44c.22-.11.33-.22.55-.22,3.76-2.21,6-5.75,6.74-10.51C184.73,93,183.73,90.13,181.08,88.81Zm-42.91,3.87c-4.64-.67-7.74-6.53-7-13.27s5.3-11.73,9.95-11.17,7.74,6.52,7,13.27S142.82,93.23,138.17,92.68Zm31.08-40.37c.11-.88.55-1.1,1.43-1,.56.22,1.11,1,1.66,2.54a1.41,1.41,0,0,1-.66,1.44c-.66.22-1.11,0-1.55-.67a3.3,3.3,0,0,0-.66-1.21,4.7,4.7,0,0,0-.22-.67Zm.66,19a1.32,1.32,0,0,1-1.77,0,1.37,1.37,0,0,1,.22-1.66,8.07,8.07,0,0,0,1.44-1.77,10.23,10.23,0,0,0,1.33-9.39c-.22-.56.11-1,.77-1.44H172a.11.11,0,0,1,.11-.11h.22a1.18,1.18,0,0,1,1,.77,5.52,5.52,0,0,1,.44,1.44A12.29,12.29,0,0,1,169.91,71.33Z"/><path class="cls-2" d="M235.07,36.08a18.52,18.52,0,0,1,6.76,1.19q10.23,3.85,12.35,18.19a33.6,33.6,0,0,1-.4,12.34,24.74,24.74,0,0,0-.07,8.68,50.42,50.42,0,0,0,1.93,8.17L257,88.23l1.6,5q2.78,12.87-8.37,15a26.41,26.41,0,0,1-2.91.4q-14.61.68-18.45-7.83,1.86-9.94-.27-24.41c-.18-1.15-.39-2.79-.66-4.91a1.51,1.51,0,0,0-1.06-.92c-.09,0-.14,0-.14.13h-.13a1.34,1.34,0,0,0-.92,1.32,83.89,83.89,0,0,1,.4,32.11,11,11,0,0,1-7.44,5.71q-17.12,3.31-23-1.6c-2.84-2.47-4.38-6.45-4.65-11.94a31.09,31.09,0,0,1,2.25-12.86,21.57,21.57,0,0,0,.8-11.69q-.66-3-1.85-6.9-4.12-8.22.39-17.51,4-8,11.15-10,10.08-2.65,18.05,9.82c.52.88,1.06,1.81,1.59,2.78a1.32,1.32,0,0,0,1.59.53,1.2,1.2,0,0,0,.53-1.46,24.83,24.83,0,0,0-4.64-7A20.42,20.42,0,0,1,235.07,36.08Zm10.21,8.62c-.79-.26-1.28,0-1.45.8a1.81,1.81,0,0,0,.13.8,2,2,0,0,0,.4.53,5.29,5.29,0,0,1,.79,1.33,1.28,1.28,0,0,0,1.46.4,1.21,1.21,0,0,0,.53-1.46A7.62,7.62,0,0,0,245.28,44.7Zm2.13,5.44a1,1,0,0,0-.4.14,1.2,1.2,0,0,0-.53,1.46,9.91,9.91,0,0,1-.27,9.42,8.24,8.24,0,0,1-1.33,2.13,1.19,1.19,0,0,0,.14,1.58,1.35,1.35,0,0,0,1.72-.13,12.45,12.45,0,0,0,2.39-12.6,8.53,8.53,0,0,0-.53-1.33,1.72,1.72,0,0,0-1.06-.67Z"/><path class="cls-2" d="M339,88.81a35.87,35.87,0,0,1-6.53-12.94c-.77-3.1-1.33-9.4-1.55-18.8q0-2.49.33-7c.78-8,.78-13.49.12-16.37-1.77-8-8.52-12-20.35-12.16-8.41,0-13.49,3.76-15,11.06a26.4,26.4,0,0,0,2,15.81c1.21,2.77,2.87,6.42,5.09,10.73a1.36,1.36,0,0,1-.56,1.55,1.48,1.48,0,0,1-1.66-.45c-.33-.77-.77-1.76-1.32-3-.34-.66-.56-1.22-.78-1.66a28.73,28.73,0,0,0-15.59-3.1c-11.06.89-17.69,8.63-19.8,23.12-1.54,10.06.56,18.57,6.09,25.43,5.08,6.19,11.28,9.18,18.69,8.74q13.59-.5,23.55-15.93a1.4,1.4,0,0,1,1-.44,1,1,0,0,1,.55.11,1.49,1.49,0,0,1,.55,1.55,22.94,22.94,0,0,1-2.43,3.43,22,22,0,0,0-1.44,1.88,9.08,9.08,0,0,0,2.66,5.08,11.85,11.85,0,0,0,9.17,4h.67a27.33,27.33,0,0,0,13.82-6.09C341.87,98.54,342.76,93.67,339,88.81Zm-50.43,3.53c-4.65-.55-7.85-6-7.08-12s5.09-10.62,9.73-10.06,7.85,6,7.08,12.16S293.21,93,288.57,92.34Zm33.29-61.81c.22-.89.66-1.22,1.43-1A3.89,3.89,0,0,1,325,32a1.17,1.17,0,0,1-2.21.78,3.34,3.34,0,0,0-.66-1.22,4.33,4.33,0,0,0-.22-.66Zm.55,18.91A1.1,1.1,0,1,1,321,47.78c.44-.55,1-1.22,1.55-1.88a10.23,10.23,0,0,0,1.21-9.4,1.06,1.06,0,0,1,.67-1.44H325c.33,0,.66.33.89.77a5.64,5.64,0,0,1,.44,1.44A12.57,12.57,0,0,1,322.41,49.44Z"/><path class="cls-2" d="M406.12,67c-2.32-16.14-13.05-24.22-32.07-24.33a27,27,0,0,0-10.5,2Q349.95,50.49,346,71.22l-.88,7.63a74.67,74.67,0,0,0,.11,10.07q2.16,25,29.19,22.78c13.61-1.11,22.78-5.64,27.54-13.49,2.54-4.43,4.09-11.62,4.64-21.35A56.88,56.88,0,0,0,406.12,67Zm-23.33,12c-1.11,9.07-5.86,16-10.51,15.49s-7.52-8.41-6.41-17.59,5.75-16,10.39-15.37S383.89,70,382.79,79.07Zm11.61-21v-.77c.22-.66.66-1,1.22-.89s1.21,1,2,2.33a1.33,1.33,0,0,1-.56,1.66,1.25,1.25,0,0,1-1.43-.56,3,3,0,0,0-.78-1.21A.79.79,0,0,1,394.4,58.06Zm2.87,18.36a1.48,1.48,0,0,1-1.77.11,1.18,1.18,0,0,1-.11-1.55c.45-.55.78-1.21,1.22-1.88a9.73,9.73,0,0,0,.33-9.51c-.11-.77,0-1.33.56-1.66l.22-.11h.33a1.58,1.58,0,0,1,1,.67,3.5,3.5,0,0,1,.56,1.32A12.4,12.4,0,0,1,397.27,76.42Z"/><path class="cls-2" d="M438,38.6h1.85q14.74.66,17.79,15.4a33.13,33.13,0,0,1,.66,6.76c.18.71.53,1.11,1.06,1.2.71-.18,1.1-.53,1.2-1.06a26.83,26.83,0,0,0-.93-8,16.51,16.51,0,0,0-.53-2.12q7.29-11.3,18.18-11.41h.66a28.61,28.61,0,0,1,11.61,2.38,15.86,15.86,0,0,1,6.84,5.32,28.27,28.27,0,0,1,3.05,6.1,16.18,16.18,0,0,1,1.06,5.17l-.13,2.13-1.19,7.43q-.67,9.42,1.72,15.39Q505.64,95,502.46,102q-2.93,5.7-10.88,5.85-14.61,0-19.24-9a.38.38,0,0,1-.13-.27,10.12,10.12,0,0,1,.53-1.46,4,4,0,0,1,.26-.66,1,1,0,0,0,.13-.4l.13-.27a29.64,29.64,0,0,0,1.4-9,47.62,47.62,0,0,0-.47-8.23l-.66-3.05a1.57,1.57,0,0,0-1.06-.93h-.26a1.47,1.47,0,0,0-.93,1.46q3.32,19.11-3.85,26.27-7.83,5.58-15.13,2.53a13.71,13.71,0,0,1-7.7-9.16c.09-.44.27-1.2.53-2.26a1.08,1.08,0,0,1,.14-.39v-.53l.79-5.71c-.18-.71-.53-1.11-1.06-1.19-.71.18-1.1.52-1.2,1q-1.19,21.38-18.31,23.76l-2.25.27c-4-.09-7-1.24-9.09-3.45a11.77,11.77,0,0,1-3.25-8,53.3,53.3,0,0,1,.53-9.3A49.18,49.18,0,0,1,413.15,82l1.2-3.19.93-6.76q.39-6.23.53-15.66.26-14.46,15.66-17.25A39.78,39.78,0,0,1,438,38.6ZM490.39,47a1.06,1.06,0,0,0-1.2,1.2,1.11,1.11,0,0,0,.13.52,1.76,1.76,0,0,0,.4.53,5.38,5.38,0,0,1,.67,1.2,1.2,1.2,0,0,0,1.45.53,1.34,1.34,0,0,0,.53-1.6,5.34,5.34,0,0,0-1.45-2.11A.78.78,0,0,0,490.39,47Zm2.38,5.44a2,2,0,0,1-.53.13,1.21,1.21,0,0,0-.53,1.47,9.89,9.89,0,0,1-.26,9.41,8.82,8.82,0,0,1-1.33,2.13,1.21,1.21,0,0,0,.13,1.59A1.37,1.37,0,0,0,492,67a12.51,12.51,0,0,0,2.39-12.61,10.88,10.88,0,0,0-.53-1.32A1.7,1.7,0,0,0,492.77,52.4Z"/></svg>